<svg width="42" height="54" viewBox="0 0 42 54" fill="none" xmlns="http://www.w3.org/2000/svg">
<g clip-path="url(#clip0_29_31)">
<path d="M40.125 32.5V25.8281C40.125 23.5531 39.2212 21.3712 37.6125 19.7625C36.0038 18.1538 33.8219 17.25 31.5469 17.25H27.7344C26.976 17.25 26.2487 16.9487 25.7125 16.4125C25.1763 15.8763 24.875 15.149 24.875 14.3906V10.5781C24.875 8.30306 23.9712 6.12119 22.3625 4.51247C20.7538 2.90376 18.5719 2 16.2969 2H11.5313M17.25 2H4.85938C3.281 2 2 3.281 2 4.85938V48.7031C2 50.2815 3.281 51.5625 4.85938 51.5625H37.2656C38.844 51.5625 40.125 50.2815 40.125 48.7031V24.875C40.125 18.8082 37.715 12.9898 33.4251 8.69993C29.1352 4.41004 23.3168 2 17.25 2Z" stroke="#9FA6AF" stroke-width="3" stroke-linecap="round" stroke-linejoin="round"/>
<path d="M15.7377 27.9C14.4544 27.9 13.471 28.2917 12.7877 29.075C12.1044 29.8583 11.7627 30.9667 11.7627 32.4C11.7627 33.85 12.1377 34.9667 12.8877 35.75C13.6544 36.5333 14.6794 36.925 15.9627 36.925C16.646 36.925 17.221 36.8333 17.6877 36.65C18.171 36.4667 18.6294 36.2583 19.0627 36.025C19.346 36.2583 19.5627 36.5417 19.7127 36.875C19.8794 37.1917 19.9627 37.5667 19.9627 38C19.9627 38.6833 19.5794 39.2667 18.8127 39.75C18.0627 40.2167 16.9127 40.45 15.3627 40.45C14.246 40.45 13.196 40.2917 12.2127 39.975C11.2294 39.6583 10.371 39.175 9.6377 38.525C8.90436 37.8583 8.32103 37.025 7.8877 36.025C7.47103 35.0083 7.2627 33.8 7.2627 32.4C7.2627 31.1 7.4627 29.9583 7.8627 28.975C8.27936 27.975 8.8377 27.1333 9.5377 26.45C10.2544 25.7667 11.0877 25.25 12.0377 24.9C12.9877 24.55 14.0044 24.375 15.0877 24.375C16.621 24.375 17.8044 24.625 18.6377 25.125C19.4877 25.625 19.9127 26.2667 19.9127 27.05C19.9127 27.4833 19.8044 27.8583 19.5877 28.175C19.371 28.4917 19.121 28.7417 18.8377 28.925C18.4044 28.6417 17.9377 28.4 17.4377 28.2C16.9544 28 16.3877 27.9 15.7377 27.9ZM31.4676 39.5C31.2342 39.7 30.8676 39.875 30.3676 40.025C29.8842 40.175 29.3509 40.25 28.7676 40.25C28.0676 40.25 27.4676 40.15 26.9676 39.95C26.4676 39.7333 26.1259 39.4417 25.9426 39.075C25.7592 38.6917 25.5342 38.2 25.2676 37.6C25.0009 36.9833 24.7176 36.3 24.4176 35.55C24.1342 34.8 23.8342 34.0083 23.5176 33.175C23.2176 32.325 22.9259 31.4667 22.6426 30.6C22.3592 29.7333 22.0926 28.8833 21.8426 28.05C21.5926 27.2167 21.3759 26.4333 21.1926 25.7C21.4259 25.4667 21.7592 25.2583 22.1926 25.075C22.6426 24.875 23.1176 24.775 23.6176 24.775C24.2342 24.775 24.7342 24.9083 25.1176 25.175C25.5176 25.425 25.8092 25.9 25.9926 26.6C26.4426 28.2333 26.8926 29.8 27.3426 31.3C27.8092 32.7833 28.2926 34.3333 28.7926 35.95H28.9426C29.3926 34.3833 29.8509 32.675 30.3176 30.825C30.8009 28.975 31.2592 27.1333 31.6926 25.3C31.9926 25.15 32.3092 25.025 32.6426 24.925C32.9926 24.825 33.3842 24.775 33.8176 24.775C34.4342 24.775 34.9592 24.9167 35.3926 25.2C35.8259 25.4667 36.0426 25.9167 36.0426 26.55C36.0426 26.9167 35.9509 27.45 35.7676 28.15C35.6009 28.85 35.3759 29.6417 35.0926 30.525C34.8259 31.3917 34.5176 32.3 34.1676 33.25C33.8342 34.2 33.4926 35.1 33.1426 35.95C32.8092 36.7833 32.4926 37.525 32.1926 38.175C31.8926 38.8083 31.6509 39.25 31.4676 39.5Z" fill="#9FA6AF"/>
</g>
<defs>
<clipPath id="clip0_29_31">
<rect width="42" height="54" fill="white"/>
</clipPath>
</defs>
</svg>
