<svg width="50" height="50" stroke="#9FA6AF" stroke-width="3" viewBox="0 0 50 50" fill="none"
    xmlns="http://www.w3.org/2000/svg">
    <path
        d="M14.7083 24.9044C14.7083 27.6008 15.7794 30.1867 17.6861 32.0933C19.5927 33.9999 22.1786 35.0711 24.875 35.0711C27.5713 35.0711 30.1573 33.9999 32.0639 32.0933C33.9705 30.1867 35.0416 27.6008 35.0416 24.9044C35.0416 22.208 33.9705 19.6221 32.0639 17.7155C30.1573 15.8089 27.5713 14.7377 24.875 14.7377C22.1786 14.7377 19.5927 15.8089 17.6861 17.7155C15.7794 19.6221 14.7083 22.208 14.7083 24.9044Z"
        stroke-linecap="round" stroke-linejoin="round" />
    <path
        d="M35.0417 24.9044V28.7169C35.0417 30.4021 35.7111 32.0183 36.9028 33.21C38.0944 34.4016 39.7106 35.0711 41.3958 35.0711C43.0811 35.0711 44.6973 34.4016 45.8889 33.21C47.0805 32.0183 47.75 30.4021 47.75 28.7169V24.9044C47.7563 19.9891 46.1792 15.2024 43.2523 11.2536C40.3253 7.30474 36.2043 4.4037 31.4996 2.98023C26.7949 1.55676 21.7568 1.68658 17.1316 3.35046C12.5065 5.01433 8.54033 8.12376 5.82065 12.2181C3.10097 16.3125 1.77245 21.174 2.0319 26.0824C2.29135 30.9909 4.12497 35.6853 7.26113 39.4701C10.3973 43.2549 14.6692 45.9289 19.4439 47.0959C24.2187 48.2629 29.2424 47.8609 33.7708 45.9494"
        stroke-linecap="round" stroke-linejoin="round" />
</svg>