<svg width="42" height="54" stroke="#9FA6AF" stroke-width="3" viewBox="0 0 42 54" fill="none"
    xmlns="http://www.w3.org/2000/svg">
    <path
        d="M40.125 32.5V25.8281C40.125 23.5531 39.2212 21.3712 37.6125 19.7625C36.0038 18.1538 33.8219 17.25 31.5469 17.25H27.7344C26.976 17.25 26.2487 16.9487 25.7125 16.4125C25.1763 15.8763 24.875 15.149 24.875 14.3906V10.5781C24.875 8.30306 23.9712 6.12119 22.3625 4.51247C20.7538 2.90376 18.5719 2 16.2969 2H11.5313M17.25 2H4.85938C3.281 2 2 3.281 2 4.85938V48.7031C2 50.2815 3.281 51.5625 4.85938 51.5625H37.2656C38.844 51.5625 40.125 50.2815 40.125 48.7031V24.875C40.125 18.8082 37.715 12.9898 33.4251 8.69993C29.1352 4.41004 23.3168 2 17.25 2Z"
        stroke-linecap="round" stroke-linejoin="round" />
</svg>