<svg width="19" height="15" viewBox="0 0 26 22" fill="none" xmlns="http://www.w3.org/2000/svg">
<path d="M3 19H21C22.6547 19 24 17.6892 24 16.0769V5.11538C24 3.50312 22.6547 2.19231 21 2.19231H14.0016C13.6781 2.19231 13.3594 2.09183 13.1016 1.9L11.3016 0.584616C10.7813 0.205529 10.1484 0 9.50156 0H3C1.34531 0 0 1.31082 0 2.92308V16.0769C0 17.6892 1.34531 19 3 19Z" fill="#FFA23E"/>
<path d="M14 8L15.0361 19.7503L19.6852 21.3L24.3639 19.7503L25.4 8H14ZM23.1497 11.797H17.6931L17.8148 13.2636H23.028L22.6242 17.6692L19.7178 18.4708V18.4797H19.6852L16.755 17.6692L16.5769 15.4189H17.993L18.0969 16.55L19.6852 16.9805L21.2794 16.55L21.4575 14.7034H16.5027L16.1227 10.3809H23.2803L23.1497 11.797Z" fill="#FFF7EE"/>
</svg>
