<svg width="47" height="50" stroke="#9FA6AF" stroke-width="3" viewBox="0 0 47 50" fill="none"
    xmlns="http://www.w3.org/2000/svg">
    <path
        d="M17.25 42.4692C6.32083 46.0276 6.32083 36.1151 2 34.8442M32.5 47.5526V38.6567C32.5 36.1151 32.7542 35.0984 31.2292 33.5734C38.3458 32.8109 45.2083 30.0151 45.2083 18.3234C45.2052 15.286 44.0202 12.369 41.9042 10.1901C42.8966 7.55171 42.8052 4.62794 41.65 2.05671C41.65 2.05671 38.8542 1.29422 32.7542 5.36088C27.5876 4.01529 22.1624 4.01529 16.9958 5.36088C10.8958 1.29422 8.1 2.05671 8.1 2.05671C6.94477 4.62794 6.8534 7.55171 7.84583 10.1901C5.72978 12.369 4.54476 15.286 4.54167 18.3234C4.54167 30.0151 11.4042 32.8109 18.5208 33.5734C16.9958 35.0984 16.9958 36.6234 17.25 38.6567V47.5526"
        stroke-linecap="round" stroke-linejoin="round" />
</svg>