<svg width="45" height="45" stroke="#9FA6AF" stroke-width="3" viewBox="0 0 45 45" fill="none"
    xmlns="http://www.w3.org/2000/svg">
    <path
        d="M2 7.08333C2 5.73515 2.53556 4.44218 3.48887 3.48887C4.44218 2.53556 5.73515 2 7.08333 2H37.5833C38.9315 2 40.2245 2.53556 41.1778 3.48887C42.1311 4.44218 42.6667 5.73515 42.6667 7.08333V37.5833C42.6667 38.9315 42.1311 40.2245 41.1778 41.1778C40.2245 42.1311 38.9315 42.6667 37.5833 42.6667H7.08333C5.73515 42.6667 4.44218 42.1311 3.48887 41.1778C2.53556 40.2245 2 38.9315 2 37.5833V7.08333Z"
        stroke-linecap="round" stroke-linejoin="round" />
    <path d="M12.1666 19.7917V32.5" stroke-linecap="round" stroke-linejoin="round" />
    <path d="M12.1666 12.1667V12.1921" stroke-linecap="round"
        stroke-linejoin="round" />
    <path d="M22.3333 32.5V19.7917" stroke-linecap="round" stroke-linejoin="round" />
    <path
        d="M32.5 32.5V24.875C32.5 23.5268 31.9644 22.2339 31.0111 21.2806C30.0578 20.3273 28.7648 19.7917 27.4166 19.7917C26.0685 19.7917 24.7755 20.3273 23.8222 21.2806C22.8689 22.2339 22.3333 23.5268 22.3333 24.875"
        stroke-linecap="round" stroke-linejoin="round" />
</svg>