<svg width="54" height="46" fill="none" xmlns="http://www.w3.org/2000/svg"><path fill-rule="evenodd" clip-rule="evenodd" d="M14.409 11.321a2.86 2.86 0 0 1 0 4.041l-7.51 7.511 7.51 7.51a2.86 2.86 0 1 1-4.042 4.042l-9.53-9.531a2.86 2.86 0 0 1 0-4.042l9.53-9.53a2.86 2.86 0 0 1 4.042 0zm24.552 0a2.86 2.86 0 0 0 0 4.041l7.51 7.511-7.51 7.51a2.86 2.86 0 0 0 2 4.951 2.86 2.86 0 0 0 2.041-.91l9.532-9.53a2.86 2.86 0 0 0 0-4.042l-9.532-9.53a2.86 2.86 0 0 0-4.04 0zM29.95.028a2.86 2.86 0 0 1 2.424 3.233l-5.718 40.032a2.86 2.86 0 0 1-5.658-.809l5.718-40.03A2.86 2.86 0 0 1 29.948.027z" fill="#9FA6AF"/></svg>